<svg width="30" height="26" viewBox="0 0 30 26" fill="none" xmlns="http://www.w3.org/2000/svg">
<path fill-rule="evenodd" clip-rule="evenodd" d="M15.0001 0.5C6.71682 0.5 0 6.23802 0 13.3164C0 18.9792 4.29797 23.7833 10.258 25.478C11.0076 25.5966 11.2829 25.2 11.2829 24.8614C11.2829 24.5558 11.2689 23.5461 11.2625 22.4752C7.0894 23.2505 6.20884 20.9631 6.20884 20.9631C5.52651 19.4816 4.54337 19.0878 4.54337 19.0878C3.18248 18.2923 4.64595 18.3086 4.64595 18.3086C6.15225 18.3991 6.9454 19.6294 6.9454 19.6294C8.28324 21.5888 10.4545 21.0223 11.3104 20.6949C11.445 19.8664 11.8338 19.3011 12.2627 18.9811C8.9311 18.6569 5.42863 17.5579 5.42863 12.6471C5.42863 11.2479 6.01461 10.1045 6.97422 9.20699C6.81847 8.88413 6.30507 7.58062 7.11951 5.81524C7.11951 5.81524 8.37912 5.47077 11.2456 7.129C12.442 6.84494 13.7253 6.70261 15.0001 6.69778C16.2748 6.70261 17.559 6.84494 18.7578 7.129C21.6209 5.47077 22.8787 5.81524 22.8787 5.81524C23.6952 7.58062 23.1815 8.88413 23.0258 9.20699C23.9875 10.1045 24.5695 11.2478 24.5695 12.6471C24.5695 17.5696 21.0604 18.6536 17.7203 18.9708C18.2583 19.3686 18.7377 20.1486 18.7377 21.3442C18.7377 23.059 18.7203 24.4392 18.7203 24.8614C18.7203 25.2025 18.9903 25.6021 19.7507 25.4763C25.7074 23.7796 30 18.9772 30 13.3164C30 6.23802 23.2841 0.5 15.0001 0.5" fill="white"/>
</svg>
