<svg width="21" height="12" viewBox="0 0 21 12" fill="none" xmlns="http://www.w3.org/2000/svg">
<path d="M18.1354 8.12145C18.1354 8.12145 19.7524 9.59576 20.1524 10.278C20.1602 10.2878 20.1663 10.2987 20.1704 10.3103C20.3334 10.5623 20.3734 10.7599 20.2934 10.9057C20.1584 11.1467 19.7014 11.2676 19.5464 11.2778H16.6884C16.4894 11.2778 16.0754 11.2298 15.5714 10.9085C15.1864 10.6602 14.8034 10.2512 14.4324 9.85148C13.8784 9.25788 13.3994 8.74274 12.9144 8.74274C12.8532 8.74262 12.7923 8.75199 12.7344 8.77044C12.3674 8.87753 11.9014 9.36035 11.9014 10.6463C11.9014 11.0488 11.5574 11.2778 11.3164 11.2778H10.0074C9.56143 11.2778 7.23943 11.1338 5.18042 9.12955C2.65742 6.67576 0.391418 1.75341 0.369418 1.71002C0.228418 1.39152 0.524418 1.21797 0.844419 1.21797H3.73042C4.11742 1.21797 4.24342 1.43399 4.33142 1.62785C4.43342 1.85034 4.81142 2.74028 5.43142 3.74007C6.43542 5.3667 7.05243 6.02862 7.54543 6.02862C7.63805 6.02887 7.72911 6.00658 7.80943 5.964C8.45343 5.63719 8.33343 3.5139 8.30343 3.07631C8.30343 2.99138 8.30243 2.12821 7.97243 1.71094C7.73643 1.41183 7.33443 1.29551 7.09143 1.25305C7.15643 1.16627 7.29443 1.03333 7.47143 0.954861C7.91243 0.751763 8.70943 0.722221 9.50043 0.722221H9.93943C10.7974 0.733299 11.0194 0.784074 11.3314 0.857004C11.9594 0.99548 11.9714 1.37121 11.9164 2.65073C11.9004 3.01631 11.8834 3.42804 11.8834 3.91271C11.8834 4.0161 11.8784 4.1315 11.8784 4.24874C11.8594 4.90512 11.8344 5.64458 12.3364 5.9483C12.4015 5.98575 12.4767 6.00557 12.5534 6.00554C12.7274 6.00554 13.2484 6.00554 14.6614 3.76684C15.2814 2.77813 15.7614 1.61216 15.7944 1.52446C15.8224 1.47553 15.9064 1.33798 16.0084 1.28259C16.081 1.24695 16.1623 1.22915 16.2444 1.23089H19.6394C20.0094 1.23089 20.2604 1.28259 20.3094 1.41183C20.3914 1.62139 20.2934 2.26115 18.7434 4.19612C18.4824 4.51831 18.2534 4.79711 18.0524 5.04082C16.6474 6.74315 16.6474 6.82901 18.1354 8.12145V8.12145Z" fill="white"/>
</svg>
