<svg width="31" height="20" viewBox="0 0 31 20" fill="none" xmlns="http://www.w3.org/2000/svg">
<path d="M13.0913 19.9752C7.37792 19.8754 5.42653 19.7855 4.22708 19.551C3.41558 19.3951 2.71038 19.049 2.19331 18.5471C1.79368 18.1673 1.47587 17.5877 1.2293 16.7836C1.0178 16.1136 0.935427 15.5562 0.817987 14.1947C0.638209 11.1219 0.595352 8.60971 0.817987 5.80268C1.00166 4.25255 1.09071 2.41237 2.31075 1.3388C2.88682 0.836351 3.55695 0.513011 4.30946 0.379343C5.48497 0.167482 10.4931 0 15.6778 0C20.8507 0 25.87 0.167482 27.0466 0.379343C27.9867 0.546825 28.8683 1.04874 29.3859 1.69595C30.4991 3.35808 30.5186 5.42492 30.6316 7.04162C30.6783 7.81193 30.6783 12.186 30.6316 12.9563C30.4557 15.5113 30.3143 16.4153 29.9147 17.3526C29.6676 17.9443 29.4566 18.2565 29.0915 18.6026C28.5189 19.1351 27.7889 19.4894 26.9987 19.6181C22.0546 19.971 17.8562 20.0476 13.0913 19.9752V19.9752ZM20.6626 9.70865C17.9119 8.31332 15.2781 7.01943 12.5859 5.68011V13.6928C15.4189 12.2309 18.4056 10.8916 20.6742 9.69755L20.6626 9.70865Z" fill="white"/>
</svg>
